<?xml version="1.0" encoding="utf-8"?>
<!-- Generator: Adobe Illustrator 27.0.1, SVG Export Plug-In . SVG Version: 6.00 Build 0)  -->
<svg version="1.1" id="Layer_2_00000080923831346167985320000017506938744451706252_"
	 xmlns="http://www.w3.org/2000/svg" xmlns:xlink="http://www.w3.org/1999/xlink" x="0px" y="0px" viewBox="0 0 109.2 42.2"
	 style="enable-background:new 0 0 109.2 42.2;" xml:space="preserve">
<style type="text/css">
	.st0{font-family:'OpenSans-Semibold';}
	.st1{font-size:25.3217px;}
</style>
<g id="Layer_2_00000175286422154440663390000012158737802151804573_">
	<text transform="matrix(1 0 0 1 2.2769 21.9229)" class="st0 st1">JOGIJOGI</text>
	<g>
		<g>
			<path d="M1.5,36.5v3.2h-1v-8.4h2.3c0.9,0,1.6,0.2,2.1,0.7s0.7,1.1,0.7,1.9s-0.3,1.4-0.8,2s-1.3,0.8-2.2,0.8H1.5V36.5z M1.5,32.2
				v3.4h1c0.7,0,1.2-0.2,1.6-0.5s0.5-0.7,0.5-1.3c0-1.1-0.7-1.7-2-1.7L1.5,32.2L1.5,32.2z"/>
			<path d="M10.2,34.7c-0.2-0.1-0.4-0.2-0.7-0.2c-0.4,0-0.8,0.2-1,0.6S8.1,36,8.1,36.7v3.1h-1v-6h1v1.1l0,0c0.1-0.4,0.3-0.8,0.6-1
				s0.6-0.4,0.9-0.4c0.2,0,0.4,0,0.6,0.1C10.2,33.6,10.2,34.7,10.2,34.7z"/>
			<path d="M16.1,36.9h-4.2c0,0.7,0.2,1.2,0.5,1.5s0.8,0.5,1.4,0.5c0.7,0,1.3-0.2,1.9-0.7v0.9c-0.5,0.4-1.2,0.6-2.1,0.6
				c-0.8,0-1.5-0.3-2-0.8s-0.7-1.3-0.7-2.3c0-0.9,0.3-1.7,0.8-2.3s1.2-0.9,2-0.9s1.4,0.3,1.8,0.8s0.6,1.2,0.6,2.1V36.9z M15.1,36.1
				c0-0.6-0.1-1-0.4-1.3s-0.6-0.5-1.1-0.5s-0.8,0.2-1.2,0.5s-0.5,0.7-0.6,1.3H15.1z"/>
			<path d="M26.1,39.7h-1v-3.4c0-0.7-0.1-1.1-0.3-1.4s-0.5-0.4-1-0.4c-0.4,0-0.8,0.2-1,0.6s-0.4,0.8-0.4,1.3v3.4h-1v-3.6
				c0-1.2-0.5-1.8-1.4-1.8c-0.4,0-0.8,0.2-1,0.5s-0.4,0.8-0.4,1.4v3.4h-1v-6h1v0.9l0,0c0.4-0.7,1-1.1,1.9-1.1c0.4,0,0.8,0.1,1.1,0.3
				c0.3,0.2,0.5,0.5,0.6,0.9c0.4-0.8,1.1-1.2,2-1.2c1.3,0,2,0.8,2,2.4v3.8H26.1z"/>
			<path d="M28.4,32.2c-0.2,0-0.3-0.1-0.4-0.2c-0.1-0.1-0.2-0.3-0.2-0.4s0.1-0.3,0.2-0.4s0.2-0.3,0.4-0.3s0.3,0.1,0.4,0.2
				s0.2,0.3,0.2,0.4c0,0.2-0.1,0.3-0.2,0.4S28.5,32.2,28.4,32.2z M28.8,39.7h-1v-6h1V39.7z"/>
			<path d="M35.6,39.7h-1v-0.9l0,0c-0.4,0.7-1,1.1-1.9,1.1c-1.4,0-2.1-0.9-2.1-2.6v-3.6h1v3.4c0,1.3,0.5,1.9,1.5,1.9
				c0.5,0,0.9-0.2,1.2-0.5s0.5-0.8,0.5-1.4v-3.5h1v6.1H35.6z"/>
			<path d="M46.1,39.7h-1v-3.4c0-0.7-0.1-1.1-0.3-1.4s-0.5-0.4-1-0.4c-0.4,0-0.8,0.2-1,0.6s-0.4,0.8-0.4,1.3v3.4h-1v-3.6
				c0-1.2-0.5-1.8-1.4-1.8c-0.4,0-0.8,0.2-1,0.5s-0.4,0.8-0.4,1.4v3.4h-1v-6h1v0.9l0,0c0.4-0.7,1-1.1,1.9-1.1c0.4,0,0.8,0.1,1.1,0.3
				c0.3,0.2,0.5,0.5,0.6,0.9c0.4-0.8,1.1-1.2,2-1.2c1.3,0,2,0.8,2,2.4L46.1,39.7L46.1,39.7z"/>
			<path d="M57.8,39.7h-1.1l-0.9-2.4h-3.6l-0.8,2.4h-1l3.2-8.4h1L57.8,39.7z M55.5,36.4l-1.3-3.5c0-0.1-0.1-0.3-0.1-0.6l0,0
				c0,0.2-0.1,0.4-0.1,0.6l-1.3,3.6L55.5,36.4L55.5,36.4z"/>
			<path d="M59.9,38.8L59.9,38.8v3.6h-1v-8.8h1v1.1l0,0c0.5-0.8,1.2-1.2,2.1-1.2c0.8,0,1.4,0.3,1.8,0.8c0.4,0.5,0.7,1.3,0.7,2.2
				c0,1-0.2,1.8-0.7,2.4c-0.5,0.6-1.2,0.9-2,0.9C60.9,39.8,60.3,39.5,59.9,38.8z M59.9,36.4v0.8c0,0.5,0.2,0.9,0.5,1.3
				s0.7,0.5,1.2,0.5c0.6,0,1-0.2,1.4-0.7c0.4-0.5,0.5-1.1,0.5-1.9c0-0.7-0.2-1.2-0.5-1.6s-0.7-0.6-1.3-0.6s-1,0.2-1.3,0.6
				S59.9,35.8,59.9,36.4z"/>
			<path d="M67,38.8L67,38.8v3.6h-1v-8.8h1v1.1l0,0c0.5-0.8,1.2-1.2,2.1-1.2c0.8,0,1.4,0.3,1.8,0.8s0.7,1.3,0.7,2.2
				c0,1-0.2,1.8-0.7,2.4s-1.2,0.9-2,0.9C68,39.8,67.4,39.5,67,38.8z M67,36.4v0.8c0,0.5,0.2,0.9,0.5,1.3s0.7,0.5,1.2,0.5
				c0.6,0,1-0.2,1.4-0.7s0.5-1.1,0.5-1.9c0-0.7-0.2-1.2-0.5-1.6s-0.7-0.6-1.3-0.6c-0.6,0-1,0.2-1.3,0.6S67,35.8,67,36.4z"/>
			<path d="M77.3,39.7h-1v-0.9l0,0c-0.4,0.7-1,1.1-1.8,1.1c-0.6,0-1.1-0.2-1.4-0.5s-0.5-0.7-0.5-1.3c0-1.1,0.7-1.8,2-2l1.8-0.2
				c0-1-0.4-1.5-1.2-1.5c-0.7,0-1.4,0.2-2,0.7v-1c0.6-0.4,1.3-0.6,2-0.6c1.4,0,2.1,0.7,2.1,2.2V39.7z M76.4,36.6L75,36.8
				c-0.4,0.1-0.8,0.2-1,0.3s-0.3,0.4-0.3,0.8c0,0.3,0.1,0.5,0.3,0.7s0.5,0.3,0.8,0.3c0.5,0,0.9-0.2,1.2-0.5s0.5-0.8,0.5-1.3
				L76.4,36.6L76.4,36.6z"/>
			<path d="M82.3,34.7c-0.2-0.1-0.4-0.2-0.7-0.2c-0.4,0-0.8,0.2-1,0.6s-0.4,0.9-0.4,1.6v3.1h-1v-6h1v1.1l0,0c0.1-0.4,0.3-0.8,0.6-1
				s0.6-0.4,0.9-0.4c0.2,0,0.4,0,0.6,0.1V34.7z"/>
			<path d="M88.1,36.9h-4.2c0,0.7,0.2,1.2,0.5,1.5s0.8,0.5,1.4,0.5c0.7,0,1.3-0.2,1.9-0.7v0.9c-0.5,0.4-1.2,0.6-2.1,0.6
				c-0.8,0-1.5-0.3-2-0.8s-0.7-1.3-0.7-2.3c0-0.9,0.3-1.7,0.8-2.3s1.2-0.9,2-0.9s1.4,0.3,1.8,0.8s0.6,1.2,0.6,2.1L88.1,36.9
				L88.1,36.9z M87.2,36.1c0-0.6-0.1-1-0.4-1.3s-0.6-0.5-1.1-0.5s-0.8,0.2-1.2,0.5s-0.5,0.7-0.6,1.3H87.2z"/>
			<path d="M93.9,39.7h-1v-0.9l0,0c-0.4,0.7-1,1.1-1.8,1.1c-0.6,0-1.1-0.2-1.4-0.5s-0.5-0.7-0.5-1.3c0-1.1,0.7-1.8,2-2l1.8-0.3
				c0-1-0.4-1.5-1.2-1.5c-0.7,0-1.4,0.2-2,0.7v-1c0.6-0.4,1.3-0.6,2-0.6c1.4,0,2.1,0.7,2.1,2.2V39.7z M92.9,36.6l-1.4,0.2
				c-0.4,0.1-0.8,0.2-1,0.3s-0.3,0.4-0.3,0.8c0,0.3,0.1,0.5,0.3,0.7s0.5,0.3,0.8,0.3c0.5,0,0.9-0.2,1.2-0.5s0.5-0.8,0.5-1.3
				L92.9,36.6L92.9,36.6z"/>
			<path d="M96.7,39.7h-1v-8.9h1V39.7z"/>
		</g>
	</g>
</g>
</svg>
